{
  "accessors": [
    {
      "bufferView": 2,
      "componentType": 5126,
      "count": 20663,
      "max": [
        0.848002552986145,
        0.9945120811462402,
        1.9603747129440308
      ],
      "min": [
        -1.1068222522735596,
        -0.9888702034950256,
        0.005549877882003784
      ],
      "type": "VEC3"
    },
    {
      "bufferView": 2,
      "byteOffset": 247956,
      "componentType": 5126,
      "count": 20663,
      "max": [
        1.0,
        1.0,
        1.0
      ],
      "min": [
        -1.0,
        -0.999443531036377,
        -0.9999998807907104
      ],
      "type": "VEC3"
    },
    {
      "bufferView": 1,
      "componentType": 5126,
      "count": 20663,
      "max": [
        1.0000001192092896,
        1.0000001192092896
      ],
      "min": [
        0.0,
        0.5
      ],
      "type": "VEC2"
    },
    {
      "bufferView": 0,
      "componentType": 5125,
      "count": 114816,
      "type": "SCALAR"
    },
    {
      "bufferView": 2,
      "byteOffset": 495912,
      "componentType": 5126,
      "count": 4759,
      "max": [
        0.6916869878768921,
        0.14536088705062866,
        1.0647491216659546
      ],
      "min": [
        -0.9505066275596619,
        -0.8472388982772827,
        0.233357235789299
      ],
      "type": "VEC3"
    },
    {
      "bufferView": 2,
      "byteOffset": 553020,
      "componentType": 5126,
      "count": 4759,
      "max": [
        0.9994907379150391,
        0.9545125961303711,
        0.9999792575836182
      ],
      "min": [
        -0.9994906187057495,
        -0.9993518590927124,
        -0.9999860525131226
      ],
      "type": "VEC3"
    },
    {
      "bufferView": 1,
      "byteOffset": 165304,
      "componentType": 5126,
      "count": 4759,
      "max": [
        1.0000001192092896,
        1.0000001192092896
      ],
      "min": [
        0.0,
        0.7500000596046448
      ],
      "type": "VEC2"
    },
    {
      "bufferView": 0,
      "byteOffset": 459264,
      "componentType": 5125,
      "count": 25344,
      "type": "SCALAR"
    },
    {
      "bufferView": 2,
      "byteOffset": 610128,
      "componentType": 5126,
      "count": 4480,
      "max": [
        0.7116935849189758,
        0.14199723303318024,
        1.6171979904174805
      ],
      "min": [
        -0.970512866973877,
        -1.0455255508422852,
        0.3238568603992462
      ],
      "type": "VEC3"
    },
    {
      "bufferView": 2,
      "byteOffset": 663888,
      "componentType": 5126,
      "count": 4480,
      "max": [
        0.9977604150772095,
        0.9994187355041504,
        0.9977115392684937
      ],
      "min": [
        -0.9977604150772095,
        -0.999836802482605,
        -0.9990606307983398
      ],
      "type": "VEC3"
    },
    {
      "bufferView": 1,
      "byteOffset": 203376,
      "componentType": 5126,
      "count": 4480,
      "max": [
        0.8319399952888489,
        0.9579353928565979
      ],
      "min": [
        0.1600256711244583,
        0.375
      ],
      "type": "VEC2"
    },
    {
      "bufferView": 0,
      "byteOffset": 560640,
      "componentType": 5125,
      "count": 23040,
      "type": "SCALAR"
    }
  ],
  "asset": {
    "extras": {
      "author": "Kawsar (https://sketchfab.com/Khsuzan)",
      "license": "CC-BY-4.0 (http://creativecommons.org/licenses/by/4.0/)",
      "source": "https://sketchfab.com/3d-models/3-emoji-without-anim-25245b6a74514a9faae8da9cb184e5e9",
      "title": "3 emoji without anim"
    },
    "generator": "Sketchfab-12.68.0",
    "version": "2.0"
  },
  "bufferViews": [
    {
      "buffer": 0,
      "byteLength": 652800,
      "name": "floatBufferViews",
      "target": 34963
    },
    {
      "buffer": 0,
      "byteLength": 239216,
      "byteOffset": 652800,
      "byteStride": 8,
      "name": "floatBufferViews",
      "target": 34962
    },
    {
      "buffer": 0,
      "byteLength": 717648,
      "byteOffset": 892016,
      "byteStride": 12,
      "name": "floatBufferViews",
      "target": 34962
    }
  ],
  "buffers": [
    {
      "byteLength": 1609664,
      "uri": "scene.bin"
    }
  ],
  "materials": [
    {
      "doubleSided": true,
      "name": "emoji_body",
      "pbrMetallicRoughness": {
        "baseColorFactor": [
          1.0,
          0.36366537358421713,
          0.0,
          1.0
        ],
        "metallicFactor": 0.0,
        "roughnessFactor": 0.9116779789714516
      }
    },
    {
      "doubleSided": true,
      "name": "inner_mouth",
      "pbrMetallicRoughness": {
        "baseColorFactor": [
          0.2099684709666353,
          0.0024302399947557585,
          0.0,
          1.0
        ],
        "metallicFactor": 0.0,
        "roughnessFactor": 0.9989632708279325
      }
    },
    {
      "doubleSided": true,
      "name": "material",
      "pbrMetallicRoughness": {
        "baseColorFactor": [
          1.0,
          0.004507974993056128,
          0.0,
          1.0
        ],
        "metallicFactor": 0.0,
        "roughnessFactor": 0.9552794910605488
      }
    }
  ],
  "meshes": [
    {
      "name": "love_emoji_body_0",
      "primitives": [
        {
          "attributes": {
            "NORMAL": 1,
            "POSITION": 0,
            "TEXCOORD_0": 2
          },
          "indices": 3,
          "material": 0,
          "mode": 4
        }
      ]
    },
    {
      "name": "love_inner mouth_0",
      "primitives": [
        {
          "attributes": {
            "NORMAL": 5,
            "POSITION": 4,
            "TEXCOORD_0": 6
          },
          "indices": 7,
          "material": 1,
          "mode": 4
        }
      ]
    },
    {
      "name": "love_red_0",
      "primitives": [
        {
          "attributes": {
            "NORMAL": 9,
            "POSITION": 8,
            "TEXCOORD_0": 10
          },
          "indices": 11,
          "material": 2,
          "mode": 4
        }
      ]
    }
  ],
  "nodes": [
    {
      "children": [
        1
      ],
      "matrix": [
        1.0,
        0.0,
        0.0,
        0.0,
        0.0,
        2.220446049250313e-16,
        -1.0,
        0.0,
        0.0,
        1.0,
        2.220446049250313e-16,
        0.0,
        0.0,
        0.0,
        0.0,
        1.0
      ],
      "name": "Sketchfab_model"
    },
    {
      "children": [
        2
      ],
      "matrix": [
        1.0,
        0.0,
        0.0,
        0.0,
        0.0,
        0.0,
        1.0,
        0.0,
        0.0,
        -1.0,
        0.0,
        0.0,
        0.0,
        0.0,
        0.0,
        1.0
      ],
      "name": "6e27e1c025af44f49f2b1d11b8a02397.fbx"
    },
    {
      "children": [
        3
      ],
      "name": "RootNode"
    },
    {
      "children": [
        4,
        5,
        6
      ],
      "matrix": [
        150.61544799804688,
        0.0,
        0.0,
        0.0,
        0.0,
        -13.127002521607468,
        -150.04228000005068,
        0.0,
        0.0,
        150.04229520077538,
        -13.12700385149896,
        0.0,
        28.487110137939453,
        0.0,
        0.0,
        1.0
      ],
      "name": "love"
    },
    {
      "mesh": 0,
      "name": "love_emoji_body_0"
    },
    {
      "mesh": 1,
      "name": "love_inner mouth_0"
    },
    {
      "mesh": 2,
      "name": "love_red_0"
    }
  ],
  "scene": 0,
  "scenes": [
    {
      "name": "Sketchfab_Scene",
      "nodes": [
        0
      ]
    }
  ]
}
